<?xml version="1.0" encoding="utf-8"?>
<svg viewBox="0 0 221.76 34.58" xmlns="http://www.w3.org/2000/svg">
  <defs>
    <style>.cls-1{fill:#22272a;}.cls-2{fill:#6f23e2;}</style>
  </defs>
  <title>Asset 9</title>
  <g id="Layer_2" data-name="Layer 2">
    <g id="Layer_1-2" data-name="Layer 1">
      <path class="cls-1" d="M40.61.34a3.26,3.26,0,0,1,2.11.84,2.82,2.82,0,0,1,1,2.28,3.64,3.64,0,0,1-.15,1L34.13,32.26a2.43,2.43,0,0,1-1,1.32,3.37,3.37,0,0,1-1.56.5,3.07,3.07,0,0,1-1.61-.48,3.16,3.16,0,0,1-1.23-1.39L21.6,16.08l.43.29L15,32.21a3.19,3.19,0,0,1-2.83,1.87,3.41,3.41,0,0,1-1.53-.5A2.35,2.35,0,0,1,9.6,32.26L.14,4.42a4,4,0,0,1-.14-1A2.78,2.78,0,0,1,1,1.18,3.36,3.36,0,0,1,3.17.34a3.22,3.22,0,0,1,1.7.48A2.4,2.4,0,0,1,6,2.21l7.63,23.13-1.05,0L19.34,8.93a3.28,3.28,0,0,1,1.11-1.37,2.52,2.52,0,0,1,1.63-.46,2.52,2.52,0,0,1,1.63.46,3,3,0,0,1,1.06,1.37L31,24.58l-.77.48L37.78,2.21A2.39,2.39,0,0,1,38.88.82,3.35,3.35,0,0,1,40.61.34Z" style="fill: rgb(255, 255, 255);"/>
      <path class="cls-1" d="M90.58.48c3.07,0,5.35.72,6.86,2.16S99.7,6.21,99.7,9a7.06,7.06,0,0,1-1.11,4,7.09,7.09,0,0,1-3.26,2.64,13.31,13.31,0,0,1-5.33.94l.19-2.16a16.81,16.81,0,0,1,3.41.41,12.69,12.69,0,0,1,3.72,1.44,8.16,8.16,0,0,1,4.15,7.61,11.31,11.31,0,0,1-1,5.18,8.05,8.05,0,0,1-2.71,3.12,10.35,10.35,0,0,1-3.6,1.51,18,18,0,0,1-3.7.41h-12a2.87,2.87,0,0,1-2.93-2.93V3.41A2.87,2.87,0,0,1,78.48.48Zm-.87,5.66H81.17l.62-.76v8.68l-.57-.43h8.63a3.82,3.82,0,0,0,2.5-.91,3.23,3.23,0,0,0,1.11-2.64,3.85,3.85,0,0,0-1-3A3.9,3.9,0,0,0,89.71,6.14ZM90.1,19.3H81.36l.43-.39V29l-.48-.48h9.12a5,5,0,0,0,3.51-1.18,4.53,4.53,0,0,0,1.29-3.52,4.64,4.64,0,0,0-.86-3.12,3.73,3.73,0,0,0-2.07-1.2A11.26,11.26,0,0,0,90.1,19.3Z" style="fill: rgb(255, 255, 255);"/>
      <path class="cls-1" d="M127.29.34a2.85,2.85,0,0,1,2,.84,2.81,2.81,0,0,1,.88,2.13,3.46,3.46,0,0,1-.12.89,3.06,3.06,0,0,1-.4.89l-10.9,15.6.87-3.31V31.15a2.88,2.88,0,0,1-.84,2.09,2.69,2.69,0,0,1-2,.84,2.78,2.78,0,0,1-2-.84,2.84,2.84,0,0,1-.84-2.09V17.76l.38,1.54L104,5.52a4.36,4.36,0,0,1-.68-1.2,3.6,3.6,0,0,1-.19-1.06,2.61,2.61,0,0,1,1-2.11,3.27,3.27,0,0,1,2.06-.81,2.9,2.9,0,0,1,2.36,1.34l9.21,12.72-1.34-.19,8.5-12.43A2.89,2.89,0,0,1,127.29.34Z" style="fill: rgb(255, 255, 255);"/>
      <path class="cls-2" d="M164.16,17.28A18.56,18.56,0,0,1,163,24a17.29,17.29,0,0,1-3.38,5.5,15.94,15.94,0,0,1-23.43,0,17.29,17.29,0,0,1-3.38-5.5,18.56,18.56,0,0,1-1.2-6.72,18.56,18.56,0,0,1,1.2-6.72,17.29,17.29,0,0,1,3.38-5.5,15.92,15.92,0,0,1,5.16-3.72A15.76,15.76,0,0,1,147.84,0a15.67,15.67,0,0,1,11.74,5.06,17.29,17.29,0,0,1,3.38,5.5A18.56,18.56,0,0,1,164.16,17.28Zm-6.24,0a12.87,12.87,0,0,0-1.3-5.83,10.44,10.44,0,0,0-3.55-4.15,9.65,9.65,0,0,0-10.46,0,10.43,10.43,0,0,0-3.53,4.12,13.1,13.1,0,0,0-1.27,5.86,13.12,13.12,0,0,0,1.27,5.83,10.32,10.32,0,0,0,3.53,4.15,9.65,9.65,0,0,0,10.46,0,10.44,10.44,0,0,0,3.55-4.15A12.87,12.87,0,0,0,157.92,17.28Z"/>
      <path class="cls-2" d="M183.55.48a8.37,8.37,0,0,1,4.68,1.44,10.79,10.79,0,0,1,3.53,3.89,11.22,11.22,0,0,1,1.34,5.47,11.14,11.14,0,0,1-1.34,5.42,11,11,0,0,1-3.53,3.92,8.31,8.31,0,0,1-4.68,1.46h-8.83l.48-.86v9.93a3,3,0,0,1-.77,2.09,2.59,2.59,0,0,1-2,.84,2.55,2.55,0,0,1-2-.84,3,3,0,0,1-.77-2.09V3.41A2.87,2.87,0,0,1,172.61.48Zm0,16.13a2.69,2.69,0,0,0,1.78-.77,6.3,6.3,0,0,0,1.44-2,6,6,0,0,0,.57-2.57,6,6,0,0,0-.57-2.59,6.11,6.11,0,0,0-1.44-1.95A2.75,2.75,0,0,0,183.55,6h-8.93l.58-.86V17.38l-.53-.77Z"/>
      <path class="cls-2" d="M209.42,34.56a20.29,20.29,0,0,1-6-.84,14.43,14.43,0,0,1-5.13-2.95,3.64,3.64,0,0,1-1-1.2,2.94,2.94,0,0,1-.34-1.35,2.78,2.78,0,0,1,.79-1.94,2.64,2.64,0,0,1,2-.84,2.52,2.52,0,0,1,1.63.58A15.09,15.09,0,0,0,205,28.27a11.36,11.36,0,0,0,4.44.77,9.31,9.31,0,0,0,3.27-.55,6.5,6.5,0,0,0,2.4-1.49,3,3,0,0,0,.91-2.14,3.59,3.59,0,0,0-.87-2.44,6.46,6.46,0,0,0-2.64-1.71A20.61,20.61,0,0,0,208,19.63a20.2,20.2,0,0,1-4.56-1.17,10.59,10.59,0,0,1-3.29-2,8.06,8.06,0,0,1-2-2.88,9.75,9.75,0,0,1-.67-3.72,8.82,8.82,0,0,1,1.61-5.33,10.1,10.1,0,0,1,4.34-3.36A15.42,15.42,0,0,1,209.47,0a17.13,17.13,0,0,1,5.78.94,13.38,13.38,0,0,1,4.35,2.37A3.21,3.21,0,0,1,221,5.86a2.73,2.73,0,0,1-.82,1.92,2.56,2.56,0,0,1-1.92.86A2.07,2.07,0,0,1,217,8.21a8.49,8.49,0,0,0-2.07-1.27,18.06,18.06,0,0,0-2.73-1,10.36,10.36,0,0,0-6.17.12,4.76,4.76,0,0,0-2.14,1.44,3.31,3.31,0,0,0-.72,2.11A3.44,3.44,0,0,0,204,12a5.66,5.66,0,0,0,2.43,1.48,27.75,27.75,0,0,0,3.79,1,37.8,37.8,0,0,1,5.06,1.25,11.87,11.87,0,0,1,3.63,1.84A7,7,0,0,1,221,20.38a10.64,10.64,0,0,1,.72,4.15A8.57,8.57,0,0,1,220,29.9a11,11,0,0,1-4.54,3.46A15.26,15.26,0,0,1,209.42,34.56Z"/>
      <polygon class="cls-1" points="53.9 15 53.9 14.58 53.48 14.58 53.9 15"/>
      <polygon class="cls-1" points="53.46 6.58 53.9 6.58 53.9 5.7 53.46 6.58"/>
      <polygon class="cls-1" points="53.63 20.58 53.9 20.58 53.9 20.17 53.63 20.58"/>
      <polygon class="cls-1" points="53.9 29.05 53.9 28.58 53.51 28.58 53.9 29.05"/>
      <path class="cls-1" d="M53.9,5.7v.88h13A2.87,2.87,0,0,0,69,5.78a2.82,2.82,0,0,0,.84-2.12A3.06,3.06,0,0,0,69,1.44,2.81,2.81,0,0,0,66.9.58H50.82a2.7,2.7,0,0,0-2.08.92,3.22,3.22,0,0,0-.84,2.27V6.58h5.56Z" style="fill: rgb(255, 255, 255);"/>
      <path class="cls-1" d="M66.9,28.58h-13v.47l-.39-.47H47.9V31.4a3.22,3.22,0,0,0,.84,2.27,2.69,2.69,0,0,0,2.08.91H66.9A2.82,2.82,0,0,0,69,33.75a2.89,2.89,0,0,0,.84-2.14A3,3,0,0,0,69,29.5,2.72,2.72,0,0,0,66.9,28.58Z" style="fill: rgb(255, 255, 255);"/>
      <path class="cls-1" d="M53.9,20.17v.41H65.69a3.3,3.3,0,0,0,2.27-.8,2.7,2.7,0,0,0,.91-2.12A2.93,2.93,0,0,0,68,15.44a3.21,3.21,0,0,0-2.27-.86H53.9V15l-.42-.42H47.9v6h5.73Z" style="fill: rgb(255, 255, 255);"/>
    </g>
  </g>
</svg>